<svg width="16" height="15" viewBox="0 0 16 15" xmlns="http://www.w3.org/2000/svg">
<path fill-rule="evenodd" clip-rule="evenodd" d="M15.3039 5.00035L10.8977 4.59837C10.62 4.57401 10.38 4.40347 10.2665 4.14767L8.68828 0.456792C8.43577 -0.152264 7.53924 -0.152264 7.28673 0.456792L5.72118 4.14767C5.62017 4.40347 5.36767 4.57401 5.08991 4.59837L0.68364 5.00035C0.027119 5.06125 -0.238015 5.85303 0.254376 6.27937L3.57486 9.0932C3.78949 9.27592 3.87787 9.5439 3.81474 9.81189L2.81733 13.7584C2.66583 14.3798 3.36023 14.8913 3.941 14.5625L7.61499 12.4794C7.85487 12.3454 8.14526 12.3454 8.38514 12.4794L12.0593 14.5625C12.64 14.8913 13.3344 14.392 13.1828 13.7584L12.198 9.81189C12.1349 9.5439 12.2233 9.27592 12.4379 9.0932L15.7584 6.27937C16.2381 5.85303 15.9604 5.06125 15.3039 5.00035Z" fill="#F7B500" />
</svg>
